<svg width="30" height="30" viewBox="0 0 30 30" fill="none" xmlns="http://www.w3.org/2000/svg">
<path d="M17.9125 25H17.65C17.1209 24.9475 16.6224 24.7277 16.2268 24.3725C15.8311 24.0174 15.559 23.5453 15.45 23.025L12.1 7.49998L8.65 15.5C8.55242 15.7236 8.39153 15.9137 8.18719 16.047C7.98284 16.1803 7.74396 16.2508 7.5 16.25H3.75C3.41848 16.25 3.10054 16.1183 2.86612 15.8839C2.6317 15.6494 2.5 15.3315 2.5 15C2.5 14.6685 2.6317 14.3505 2.86612 14.1161C3.10054 13.8817 3.41848 13.75 3.75 13.75H6.675L9.8125 6.51248C10.0237 6.0268 10.3837 5.62075 10.8406 5.35287C11.2974 5.08498 11.8275 4.9691 12.3545 5.02194C12.8815 5.07477 13.3781 5.29359 13.7726 5.64685C14.1672 6.0001 14.4394 6.46954 14.55 6.98748L17.9 22.5L21.35 14.525C21.4438 14.2967 21.603 14.1013 21.8077 13.9634C22.0123 13.8255 22.2532 13.7512 22.5 13.75H26.25C26.5815 13.75 26.8995 13.8817 27.1339 14.1161C27.3683 14.3505 27.5 14.6685 27.5 15C27.5 15.3315 27.3683 15.6494 27.1339 15.8839C26.8995 16.1183 26.5815 16.25 26.25 16.25H23.325L20.1875 23.4875C19.9959 23.9331 19.6788 24.3134 19.2749 24.582C18.8709 24.8505 18.3976 24.9958 17.9125 25Z" fill="#777777"/>
</svg>
