<svg width="30" height="30" viewBox="0 0 30 30" fill="none" xmlns="http://www.w3.org/2000/svg">
<path d="M23.75 3.75H6.25C4.875 3.75 3.75 4.875 3.75 6.25V23.75C3.75 25.125 4.875 26.25 6.25 26.25H23.75C25.125 26.25 26.25 25.125 26.25 23.75V6.25C26.25 4.875 25.125 3.75 23.75 3.75ZM10 21.25C9.3125 21.25 8.75 20.6875 8.75 20V16.25C8.75 15.5625 9.3125 15 10 15C10.6875 15 11.25 15.5625 11.25 16.25V20C11.25 20.6875 10.6875 21.25 10 21.25ZM15 21.25C14.3125 21.25 13.75 20.6875 13.75 20V18.75C13.75 18.0625 14.3125 17.5 15 17.5C15.6875 17.5 16.25 18.0625 16.25 18.75V20C16.25 20.6875 15.6875 21.25 15 21.25ZM15 15C14.3125 15 13.75 14.4375 13.75 13.75C13.75 13.0625 14.3125 12.5 15 12.5C15.6875 12.5 16.25 13.0625 16.25 13.75C16.25 14.4375 15.6875 15 15 15ZM20 21.25C19.3125 21.25 18.75 20.6875 18.75 20V10C18.75 9.3125 19.3125 8.75 20 8.75C20.6875 8.75 21.25 9.3125 21.25 10V20C21.25 20.6875 20.6875 21.25 20 21.25Z" fill="#777777"/>
</svg>
