<svg width="50" height="48" viewBox="0 0 50 48" fill="none" xmlns="http://www.w3.org/2000/svg">
<path fill-rule="evenodd" clip-rule="evenodd" d="M25 47.8972C38.8071 47.8972 50 37.175 50 23.9486C50 10.7222 38.8071 0 25 0C11.1929 0 0 10.7222 0 23.9486C0 37.175 11.1929 47.8972 25 47.8972Z" fill="#F5F5F8"/>
<mask id="mask0_4_236" style="mask-type:alpha" maskUnits="userSpaceOnUse" x="0" y="0" width="50" height="48">
<path fill-rule="evenodd" clip-rule="evenodd" d="M25 47.8972C38.8071 47.8972 50 37.175 50 23.9486C50 10.7222 38.8071 0 25 0C11.1929 0 0 10.7222 0 23.9486C0 37.175 11.1929 47.8972 25 47.8972Z" fill="white"/>
</mask>
<g mask="url(#mask0_4_236)">
<path fill-rule="evenodd" clip-rule="evenodd" d="M43.1895 42.3406C41.7156 40.2982 39.5426 38.8136 37.0468 38.1439L31.25 36.5883V32.5969C33.7006 30.8335 35.3099 28.0585 35.4088 24.9195C35.7513 25.0642 36.1293 25.1461 36.5279 25.1461C38.062 25.1461 39.3057 23.9548 39.3057 22.4852C39.3057 21.0155 38.062 19.8242 36.5279 19.8242C36.1325 19.8242 35.7572 19.9044 35.4168 20.047V19.292C35.4168 13.7809 30.7531 9.31339 25.0001 9.31339H25C19.2471 9.31339 14.5834 13.7809 14.5834 19.292V20.047C14.2429 19.9044 13.8676 19.8242 13.4723 19.8242C11.9382 19.8242 10.6945 21.0155 10.6945 22.4852C10.6945 23.9548 11.9382 25.1461 13.4723 25.1461C13.8708 25.1461 14.2489 25.0643 14.5915 24.9195C14.6902 28.0585 16.2996 30.8335 18.75 32.5969V36.5883L12.9533 38.1439C10.4575 38.8136 8.28454 40.2982 6.81065 42.3406L2.77786 47.9293V51.8888H47.2224V47.9293L43.1895 42.3406Z" fill="#FFCF83"/>
<path fill-rule="evenodd" clip-rule="evenodd" d="M25 34.5925C23.7156 34.5925 22.4861 34.3684 21.35 33.9612C22.9658 34.95 24.8847 35.5238 26.9444 35.5238C28.4806 35.5238 29.9374 35.2028 31.25 34.6311V32.5969C29.509 33.8497 27.3451 34.5925 25 34.5925Z" fill="#F7A74F"/>
<path d="M14.9457 22.8735C14.9812 22.7499 15.0002 22.6196 15.0002 22.4852C15.0002 21.677 14.3162 21.0217 13.4724 21.0217C13.2614 21.0217 13.0605 21.0627 12.8777 21.1367" stroke="#00004D" stroke-width="2" stroke-linecap="round" stroke-linejoin="round"/>
<path d="M35.0545 22.8735C35.0191 22.7499 35.0002 22.6196 35.0002 22.4852C35.0002 21.677 35.6842 21.0217 36.528 21.0217C36.7388 21.0217 36.9398 21.0627 37.1227 21.1367" stroke="#00004D" stroke-width="2" stroke-linecap="round" stroke-linejoin="round"/>
<path fill-rule="evenodd" clip-rule="evenodd" d="M27.7777 28.4734C27.7777 29.9431 26.5341 31.1344 25 31.1344C23.4658 31.1344 22.2222 29.9431 22.2222 28.4734H27.7777Z" fill="white"/>
<path fill-rule="evenodd" clip-rule="evenodd" d="M30.6945 22.8842C30.6945 23.472 30.197 23.9486 29.5834 23.9486C28.9698 23.9486 28.4723 23.472 28.4723 22.8842C28.4723 22.2964 28.9698 21.8198 29.5834 21.8198C30.197 21.8198 30.6945 22.2964 30.6945 22.8842" fill="#00004D"/>
<path fill-rule="evenodd" clip-rule="evenodd" d="M21.5278 22.8842C21.5278 23.472 21.0303 23.9486 20.4167 23.9486C19.8031 23.9486 19.3056 23.472 19.3056 22.8842C19.3056 22.2964 19.8031 21.8198 20.4167 21.8198C21.0303 21.8198 21.5278 22.2964 21.5278 22.8842" fill="#00004D"/>
<path d="M25 21.8198L26.3888 26.3434L24.4444 26.6095" stroke="#00004D" stroke-linecap="round" stroke-linejoin="round"/>
<path fill-rule="evenodd" clip-rule="evenodd" d="M36.1111 19.8572V19.2919C36.1111 17.2502 35.5099 15.3433 34.4694 13.7232C33.5051 12.2218 32.1621 10.969 30.5687 10.0829C28.9311 9.17204 27.0299 8.6481 25 8.6481C22.97 8.6481 21.0689 9.17204 19.4312 10.0829C17.8379 10.969 16.4949 12.2218 15.5306 13.7232C14.4901 15.3433 13.8889 17.2502 13.8889 19.2919V19.8572C14.4683 19.9411 14.9887 20.1945 15.3928 20.5655C16.6725 19.335 17.7031 17.867 18.4042 16.2349C20.3664 17.2512 22.6128 17.8284 25 17.8284C27.3872 17.8284 29.6336 17.2512 31.5958 16.2349C32.2968 17.867 33.3276 19.335 34.6072 20.5655C35.0112 20.1945 35.5317 19.9411 36.1111 19.8572" fill="#00004D"/>
<path fill-rule="evenodd" clip-rule="evenodd" d="M47.2223 47.9291L43.1894 42.3405C41.7156 40.2982 39.5427 38.8135 37.0467 38.1437L31.2501 36.5881C31.2501 39.8948 28.4519 42.5753 25 42.5753V42.5753C21.5482 42.5753 18.75 39.8948 18.75 36.5881L12.9532 38.1437C10.4574 38.8135 8.28445 40.2982 6.81056 42.3405L2.77777 47.9291V51.8886H47.2223V47.9291Z" fill="#FB344F"/>
</g>
</svg>
