<svg width="30" height="30" viewBox="0 0 30 30" fill="none" xmlns="http://www.w3.org/2000/svg">
<path fill-rule="evenodd" clip-rule="evenodd" d="M21.875 25C22.7038 25 23.4987 24.6708 24.0847 24.0847C24.6708 23.4987 25 22.7038 25 21.875C25 21.0462 24.6708 20.2513 24.0847 19.6653C23.4987 19.0792 22.7038 18.75 21.875 18.75C21.0462 18.75 20.2513 19.0792 19.6653 19.6653C19.0792 20.2513 18.75 21.0462 18.75 21.875C18.75 22.7038 19.0792 23.4987 19.6653 24.0847C20.2513 24.6708 21.0462 25 21.875 25ZM21.875 26.25C23.0353 26.25 24.1481 25.7891 24.9686 24.9686C25.7891 24.1481 26.25 23.0353 26.25 21.875C26.25 20.7147 25.7891 19.6019 24.9686 18.7814C24.1481 17.9609 23.0353 17.5 21.875 17.5C20.7147 17.5 19.6019 17.9609 18.7814 18.7814C17.9609 19.6019 17.5 20.7147 17.5 21.875C17.5 23.0353 17.9609 24.1481 18.7814 24.9686C19.6019 25.7891 20.7147 26.25 21.875 26.25V26.25Z" fill="#777777"/>
<path fill-rule="evenodd" clip-rule="evenodd" d="M21.875 19.6875C22.0408 19.6875 22.1997 19.7533 22.3169 19.8706C22.4342 19.9878 22.5 20.1467 22.5 20.3125V21.6162L22.9419 22.0581C23.0557 22.176 23.1187 22.3339 23.1173 22.4978C23.1159 22.6616 23.0501 22.8184 22.9343 22.9343C22.8184 23.0501 22.6616 23.1159 22.4978 23.1173C22.3339 23.1187 22.176 23.0557 22.0581 22.9419L21.25 22.1338V20.3125C21.25 20.1467 21.3158 19.9878 21.4331 19.8706C21.5503 19.7533 21.7092 19.6875 21.875 19.6875ZM8.75 14.375H7.5V15.625H8.75V14.375ZM7.5 13.125C7.16848 13.125 6.85054 13.2567 6.61612 13.4911C6.3817 13.7255 6.25 14.0435 6.25 14.375V15.625C6.25 15.9565 6.3817 16.2745 6.61612 16.5089C6.85054 16.7433 7.16848 16.875 7.5 16.875H8.75C9.08152 16.875 9.39946 16.7433 9.63388 16.5089C9.8683 16.2745 10 15.9565 10 15.625V14.375C10 14.0435 9.8683 13.7255 9.63388 13.4911C9.39946 13.2567 9.08152 13.125 8.75 13.125H7.5ZM13.75 14.375H12.5V15.625H13.75V14.375ZM12.5 13.125C12.1685 13.125 11.8505 13.2567 11.6161 13.4911C11.3817 13.7255 11.25 14.0435 11.25 14.375V15.625C11.25 15.9565 11.3817 16.2745 11.6161 16.5089C11.8505 16.7433 12.1685 16.875 12.5 16.875H13.75C14.0815 16.875 14.3995 16.7433 14.6339 16.5089C14.8683 16.2745 15 15.9565 15 15.625V14.375C15 14.0435 14.8683 13.7255 14.6339 13.4911C14.3995 13.2567 14.0815 13.125 13.75 13.125H12.5ZM18.75 14.375H17.5V15.625H18.75V14.375ZM17.5 13.125C17.1685 13.125 16.8505 13.2567 16.6161 13.4911C16.3817 13.7255 16.25 14.0435 16.25 14.375V15.625C16.25 15.9565 16.3817 16.2745 16.6161 16.5089C16.8505 16.7433 17.1685 16.875 17.5 16.875H18.75C19.0815 16.875 19.3995 16.7433 19.6339 16.5089C19.8683 16.2745 20 15.9565 20 15.625V14.375C20 14.0435 19.8683 13.7255 19.6339 13.4911C19.3995 13.2567 19.0815 13.125 18.75 13.125H17.5ZM8.75 19.375H7.5V20.625H8.75V19.375ZM7.5 18.125C7.16848 18.125 6.85054 18.2567 6.61612 18.4911C6.3817 18.7255 6.25 19.0435 6.25 19.375V20.625C6.25 20.9565 6.3817 21.2745 6.61612 21.5089C6.85054 21.7433 7.16848 21.875 7.5 21.875H8.75C9.08152 21.875 9.39946 21.7433 9.63388 21.5089C9.8683 21.2745 10 20.9565 10 20.625V19.375C10 19.0435 9.8683 18.7255 9.63388 18.4911C9.39946 18.2567 9.08152 18.125 8.75 18.125H7.5ZM13.75 19.375H12.5V20.625H13.75V19.375ZM12.5 18.125C12.1685 18.125 11.8505 18.2567 11.6161 18.4911C11.3817 18.7255 11.25 19.0435 11.25 19.375V20.625C11.25 20.9565 11.3817 21.2745 11.6161 21.5089C11.8505 21.7433 12.1685 21.875 12.5 21.875H13.75C14.0815 21.875 14.3995 21.7433 14.6339 21.5089C14.8683 21.2745 15 20.9565 15 20.625V19.375C15 19.0435 14.8683 18.7255 14.6339 18.4911C14.3995 18.2567 14.0815 18.125 13.75 18.125H12.5Z" fill="#777777"/>
<path fill-rule="evenodd" clip-rule="evenodd" d="M5 7.5C5 7.33424 5.06585 7.17527 5.18306 7.05806C5.30027 6.94085 5.45924 6.875 5.625 6.875H8.75V5.625H5.625C5.12772 5.625 4.65081 5.82254 4.29917 6.17417C3.94754 6.52581 3.75 7.00272 3.75 7.5V22.5C3.75 22.9973 3.94754 23.4742 4.29917 23.8258C4.65081 24.1775 5.12772 24.375 5.625 24.375H18.2844C18.0178 23.9932 17.8142 23.5712 17.6813 23.125H5.625C5.45924 23.125 5.30027 23.0592 5.18306 22.9419C5.06585 22.8247 5 22.6658 5 22.5V7.5ZM21.25 17.5437C21.6646 17.4844 22.0854 17.4844 22.5 17.5437V7.5C22.5 7.00272 22.3025 6.52581 21.9508 6.17417C21.5992 5.82254 21.1223 5.625 20.625 5.625H18.75V6.875H20.625C20.7908 6.875 20.9497 6.94085 21.0669 7.05806C21.1842 7.17527 21.25 7.33424 21.25 7.5V17.5437ZM10 6.875H16.6019V5.625H10V6.875Z" fill="#777777"/>
<path fill-rule="evenodd" clip-rule="evenodd" d="M17.5 5.625H10V7.5C10 7.66576 9.93415 7.82473 9.81694 7.94194C9.69973 8.05915 9.54076 8.125 9.375 8.125C9.20924 8.125 9.05027 8.05915 8.93306 7.94194C8.81585 7.82473 8.75 7.66576 8.75 7.5V5.625H5.625C5.29348 5.625 4.97554 5.7567 4.74112 5.99112C4.5067 6.22554 4.375 6.54348 4.375 6.875V10C4.375 10.3315 4.5067 10.6495 4.74112 10.8839C4.97554 11.1183 5.29348 11.25 5.625 11.25H20.625C20.9565 11.25 21.2745 11.1183 21.5089 10.8839C21.7433 10.6495 21.875 10.3315 21.875 10V6.875C21.875 6.54348 21.7433 6.22554 21.5089 5.99112C21.2745 5.7567 20.9565 5.625 20.625 5.625H18.75V7.5C18.75 7.66576 18.6842 7.82473 18.5669 7.94194C18.4497 8.05915 18.2908 8.125 18.125 8.125C17.9592 8.125 17.8003 8.05915 17.6831 7.94194C17.5658 7.82473 17.5 7.66576 17.5 7.5V5.625Z" fill="#777777"/>
<path fill-rule="evenodd" clip-rule="evenodd" d="M22.5 11.25H5V10H22.5V11.25Z" fill="#777777"/>
<path d="M7.5 4.375C7.5 4.20924 7.56585 4.05027 7.68306 3.93306C7.80027 3.81585 7.95924 3.75 8.125 3.75C8.29076 3.75 8.44973 3.81585 8.56694 3.93306C8.68415 4.05027 8.75 4.20924 8.75 4.375V6.875C8.75 7.04076 8.68415 7.19973 8.56694 7.31694C8.44973 7.43415 8.29076 7.5 8.125 7.5C7.95924 7.5 7.80027 7.43415 7.68306 7.31694C7.56585 7.19973 7.5 7.04076 7.5 6.875V4.375ZM16.25 4.375C16.25 4.20924 16.3158 4.05027 16.4331 3.93306C16.5503 3.81585 16.7092 3.75 16.875 3.75C17.0408 3.75 17.1997 3.81585 17.3169 3.93306C17.4342 4.05027 17.5 4.20924 17.5 4.375V6.875C17.5 7.04076 17.4342 7.19973 17.3169 7.31694C17.1997 7.43415 17.0408 7.5 16.875 7.5C16.7092 7.5 16.5503 7.43415 16.4331 7.31694C16.3158 7.19973 16.25 7.04076 16.25 6.875V4.375Z" fill="#777777"/>
</svg>
