<svg width="30" height="30" viewBox="0 0 30 30" fill="none" xmlns="http://www.w3.org/2000/svg">
<path d="M26.25 12.65H17.775L21.2 9.125C17.7875 5.75 12.2625 5.625 8.85001 9C5.43751 12.3875 5.43751 17.85 8.85001 21.2375C12.2625 24.625 17.7875 24.625 21.2 21.2375C22.9 19.5625 23.75 17.6 23.75 15.125H26.25C26.25 17.6 25.15 20.8125 22.95 22.9875C18.5625 27.3375 11.4375 27.3375 7.05001 22.9875C2.67501 18.65 2.63751 11.6 7.02501 7.2625C11.4125 2.925 18.45 2.925 22.8375 7.2625L26.25 3.75V12.65V12.65ZM15.625 10V15.3125L20 17.9125L19.1 19.425L13.75 16.25V10H15.625Z" fill="#777777"/>
</svg>
