<svg width="30" height="30" viewBox="0 0 30 30" fill="none" xmlns="http://www.w3.org/2000/svg">
<path d="M15 2.1875C16.0377 2.18743 17.036 2.58444 17.7903 3.29709C18.5445 4.00974 18.9975 4.98399 19.0562 6.02L19.0625 6.25H25.625C25.8625 6.25007 26.0912 6.34031 26.2647 6.50247C26.4383 6.66463 26.5438 6.88662 26.56 7.1236C26.5762 7.36058 26.5019 7.59487 26.352 7.77912C26.2021 7.96338 25.9878 8.08387 25.7525 8.11625L25.625 8.125H24.63L23.03 24.4C22.9498 25.2114 22.5839 25.9679 21.9975 26.5343C21.4111 27.1008 20.6424 27.4404 19.8287 27.4925L19.6088 27.5H10.3912C9.57558 27.5 8.78649 27.2099 8.16501 26.6816C7.54352 26.1533 7.13015 25.4213 6.99875 24.6163L6.97 24.3987L5.36875 8.125H4.375C4.14845 8.12499 3.92957 8.04295 3.75884 7.89404C3.5881 7.74514 3.47706 7.53944 3.44625 7.315L3.4375 7.1875C3.43751 6.96095 3.51955 6.74207 3.66846 6.57134C3.81736 6.4006 4.02306 6.28956 4.2475 6.25875L4.375 6.25H10.9375C10.9375 5.17256 11.3655 4.13925 12.1274 3.37738C12.8892 2.61551 13.9226 2.1875 15 2.1875V2.1875ZM22.7463 8.125H7.2525L8.83625 24.215C8.87132 24.574 9.02953 24.9098 9.28403 25.1655C9.53853 25.4211 9.87364 25.5808 10.2325 25.6175L10.3912 25.625H19.6088C20.3588 25.625 20.995 25.0937 21.14 24.3725L21.165 24.215L22.745 8.125H22.7463ZM17.1875 11.5625C17.414 11.5625 17.6329 11.6446 17.8037 11.7935C17.9744 11.9424 18.0854 12.1481 18.1163 12.3725L18.125 12.5V21.25C18.1249 21.4875 18.0347 21.7162 17.8725 21.8897C17.7104 22.0633 17.4884 22.1688 17.2514 22.185C17.0144 22.2012 16.7801 22.1269 16.5959 21.977C16.4116 21.8271 16.2911 21.6128 16.2587 21.3775L16.25 21.25V12.5C16.25 12.2514 16.3488 12.0129 16.5246 11.8371C16.7004 11.6613 16.9389 11.5625 17.1875 11.5625ZM12.8125 11.5625C13.039 11.5625 13.2579 11.6446 13.4287 11.7935C13.5994 11.9424 13.7104 12.1481 13.7413 12.3725L13.75 12.5V21.25C13.7499 21.4875 13.6597 21.7162 13.4975 21.8897C13.3354 22.0633 13.1134 22.1688 12.8764 22.185C12.6394 22.2012 12.4051 22.1269 12.2209 21.977C12.0366 21.8271 11.9161 21.6128 11.8837 21.3775L11.875 21.25V12.5C11.875 12.2514 11.9738 12.0129 12.1496 11.8371C12.3254 11.6613 12.5639 11.5625 12.8125 11.5625ZM15 4.0625C14.451 4.06252 13.9221 4.26896 13.5183 4.64085C13.1144 5.01274 12.8652 5.52287 12.82 6.07L12.8125 6.25H17.1875C17.1875 5.66984 16.957 5.11344 16.5468 4.7032C16.1366 4.29297 15.5802 4.0625 15 4.0625Z" fill="#FF5454"/>
</svg>
