<svg width="32" height="30" viewBox="0 0 32 30" fill="none" xmlns="http://www.w3.org/2000/svg">
<path d="M30.8935 0.830966C31.1349 1.41335 31.0355 1.91051 30.5952 2.32244L20.0909 12.8267V28.6364C20.0909 29.233 19.8139 29.652 19.2599 29.8935C19.0753 29.9645 18.8977 30 18.7273 30C18.3437 30 18.0241 29.8651 17.7685 29.5952L12.3139 24.1406C12.044 23.8707 11.9091 23.5511 11.9091 23.1818V12.8267L1.40482 2.32244C0.96448 1.91051 0.865048 1.41335 1.10653 0.830966C1.348 0.276989 1.76704 0 2.36363 0H29.6364C30.2329 0 30.652 0.276989 30.8935 0.830966Z" fill="#777777"/>
</svg>
