<svg width="200" height="200" viewBox="0 0 200 200" fill="none" xmlns="http://www.w3.org/2000/svg">
<path d="M175 56.25V175C175 181.63 172.366 187.989 167.678 192.678C162.989 197.366 156.63 200 150 200H50C43.3696 200 37.0107 197.366 32.3223 192.678C27.6339 187.989 25 181.63 25 175V25C25 18.3696 27.6339 12.0107 32.3223 7.32233C37.0107 2.63392 43.3696 0 50 0L118.75 0L175 56.25ZM137.5 56.25C132.527 56.25 127.758 54.2746 124.242 50.7583C120.725 47.2419 118.75 42.4728 118.75 37.5V12.5H50C46.6848 12.5 43.5054 13.817 41.1612 16.1612C38.817 18.5054 37.5 21.6848 37.5 25V175C37.5 178.315 38.817 181.495 41.1612 183.839C43.5054 186.183 46.6848 187.5 50 187.5H150C153.315 187.5 156.495 186.183 158.839 183.839C161.183 181.495 162.5 178.315 162.5 175V56.25H137.5Z" fill="#FDFDFD"/>
<path d="M50 81.25C50 79.5924 50.6585 78.0027 51.8306 76.8306C53.0027 75.6585 54.5924 75 56.25 75H143.75C145.408 75 146.997 75.6585 148.169 76.8306C149.342 78.0027 150 79.5924 150 81.25V168.75C150 170.408 149.342 171.997 148.169 173.169C146.997 174.342 145.408 175 143.75 175H56.25C54.5924 175 53.0027 174.342 51.8306 173.169C50.6585 171.997 50 170.408 50 168.75V81.25ZM50 43.75C50 42.0924 50.6585 40.5027 51.8306 39.3306C53.0027 38.1585 54.5924 37.5 56.25 37.5H87.5C89.1576 37.5 90.7473 38.1585 91.9194 39.3306C93.0915 40.5027 93.75 42.0924 93.75 43.75C93.75 45.4076 93.0915 46.9973 91.9194 48.1694C90.7473 49.3415 89.1576 50 87.5 50H56.25C54.5924 50 53.0027 49.3415 51.8306 48.1694C50.6585 46.9973 50 45.4076 50 43.75Z" fill="#FDFDFD"/>
</svg>
