<svg width="30" height="30" viewBox="0 0 30 30" fill="none" xmlns="http://www.w3.org/2000/svg">
<path d="M15 27.5C14.3368 27.4967 13.7015 27.2327 13.2314 26.7649C12.7613 26.2971 12.4941 25.6632 12.4875 25H17.4875C17.4901 25.3342 17.4264 25.6656 17.3 25.975C17.1384 26.3459 16.8908 26.6731 16.5779 26.9296C16.2649 27.186 15.8955 27.3644 15.5 27.45H15.4412C15.296 27.4803 15.1483 27.497 15 27.5ZM25 23.75H5V21.25L7.5 20V13.125C7.43415 11.3614 7.83242 9.61141 8.655 8.05C9.0598 7.33409 9.61179 6.71214 10.2746 6.22518C10.9373 5.73823 11.6958 5.39734 12.5 5.225V2.5H17.5V5.225C20.7237 5.9925 22.5 8.7975 22.5 13.125V20L25 21.25V23.75Z" fill="#777777"/>
</svg>
