<svg width="30" height="30" viewBox="0 0 30 30" fill="none" xmlns="http://www.w3.org/2000/svg">
<path d="M15 2.5C21.9037 2.5 27.5 8.09625 27.5 15C27.5 21.9037 21.9037 27.5 15 27.5C8.09625 27.5 2.5 21.9037 2.5 15C2.5 8.09625 8.09625 2.5 15 2.5ZM15 8.75C14.7735 8.75001 14.5546 8.83205 14.3838 8.98096C14.2131 9.12986 14.1021 9.33556 14.0712 9.56L14.0625 9.6875V14.0625H9.6875C9.44997 14.0626 9.22132 14.1528 9.04776 14.315C8.8742 14.4771 8.76866 14.6991 8.75247 14.9361C8.73628 15.1731 8.81064 15.4074 8.96054 15.5916C9.11044 15.7759 9.32469 15.8964 9.56 15.9288L9.6875 15.9375H14.0625V20.3125C14.0626 20.55 14.1528 20.7787 14.315 20.9522C14.4771 21.1258 14.6991 21.2313 14.9361 21.2475C15.1731 21.2637 15.4074 21.1894 15.5916 21.0395C15.7759 20.8896 15.8964 20.6753 15.9288 20.44L15.9375 20.3125V15.9375H20.3125C20.55 15.9374 20.7787 15.8472 20.9522 15.685C21.1258 15.5229 21.2313 15.3009 21.2475 15.0639C21.2637 14.8269 21.1894 14.5926 21.0395 14.4084C20.8896 14.2241 20.6753 14.1036 20.44 14.0712L20.3125 14.0625H15.9375V9.6875C15.9375 9.43886 15.8387 9.2004 15.6629 9.02459C15.4871 8.84877 15.2486 8.75 15 8.75Z" fill="#777777"/>
</svg>
