<svg width="30" height="30" viewBox="0 0 30 30" fill="none" xmlns="http://www.w3.org/2000/svg">
<path d="M19.0221 11.7857C20.0571 11.7857 20.8971 12.6257 20.8971 13.6607V20.8918C20.8971 22.455 20.2762 23.9541 19.1708 25.0594C18.0655 26.1648 16.5664 26.7857 15.0032 26.7857C13.44 26.7857 11.9409 26.1648 10.8356 25.0594C9.73025 23.9541 9.10928 22.455 9.10928 20.8918V13.6607C9.10928 12.6257 9.94821 11.7857 10.9843 11.7857H19.0221ZM4.01785 11.7857L8.71285 11.7836C8.32676 12.2488 8.09432 12.8223 8.0475 13.425L8.03678 13.6607V20.8918C8.03678 22.1057 8.34857 23.2479 8.89392 24.2422C8.1599 24.5624 7.35768 24.6948 6.55967 24.6275C5.76166 24.5601 4.99299 24.2951 4.32305 23.8563C3.65311 23.4175 3.103 22.8187 2.72237 22.1141C2.34173 21.4095 2.14257 20.6212 2.14285 19.8204V13.6607C2.14314 13.1633 2.34092 12.6864 2.69272 12.3348C3.04452 11.9832 3.52154 11.7857 4.01892 11.7857H4.01785ZM21.2936 11.7836L25.9821 11.7857C27.0171 11.7857 27.8571 12.6257 27.8571 13.6607V19.8214C27.8575 20.622 27.6584 21.41 27.2781 22.1144C26.8977 22.8188 26.3479 23.4173 25.6783 23.8561C25.0087 24.2949 24.2404 24.56 23.4428 24.6276C22.6451 24.6952 21.8431 24.5631 21.1093 24.2432L21.1693 24.1339C21.6289 23.2629 21.9086 22.2814 21.96 21.2411L21.9686 20.8918V13.6607C21.9686 12.9472 21.7146 12.2936 21.2936 11.7836ZM15 3.21429C15.4925 3.21429 15.9801 3.31129 16.4351 3.49975C16.89 3.6882 17.3034 3.96442 17.6516 4.31264C17.9999 4.66086 18.2761 5.07426 18.4645 5.52923C18.653 5.9842 18.75 6.47184 18.75 6.96429C18.75 7.45675 18.653 7.94439 18.4645 8.39936C18.2761 8.85433 17.9999 9.26772 17.6516 9.61594C17.3034 9.96416 16.89 10.2404 16.4351 10.4288C15.9801 10.6173 15.4925 10.7143 15 10.7143C14.0054 10.7143 13.0516 10.3192 12.3483 9.61594C11.6451 8.91268 11.25 7.95886 11.25 6.96429C11.25 5.96973 11.6451 5.01591 12.3483 4.31264C13.0516 3.60938 14.0054 3.21429 15 3.21429V3.21429ZM23.5746 4.28572C23.9967 4.28572 24.4147 4.36886 24.8047 4.5304C25.1947 4.69193 25.549 4.92869 25.8475 5.22717C26.146 5.52564 26.3827 5.87998 26.5443 6.26995C26.7058 6.65993 26.7889 7.0779 26.7889 7.50001C26.7889 7.92211 26.7058 8.34009 26.5443 8.73006C26.3827 9.12004 26.146 9.47438 25.8475 9.77285C25.549 10.0713 25.1947 10.3081 24.8047 10.4696C24.4147 10.6312 23.9967 10.7143 23.5746 10.7143C22.7222 10.7143 21.9046 10.3756 21.3018 9.77285C20.699 9.17006 20.3604 8.35249 20.3604 7.50001C20.3604 6.64753 20.699 5.82996 21.3018 5.22717C21.9046 4.62437 22.7222 4.28572 23.5746 4.28572V4.28572ZM6.42535 4.28572C6.84746 4.28572 7.26543 4.36886 7.65541 4.5304C8.04538 4.69193 8.39972 4.92869 8.6982 5.22717C8.99667 5.52564 9.23343 5.87998 9.39497 6.26995C9.5565 6.65993 9.63964 7.0779 9.63964 7.50001C9.63964 7.92211 9.5565 8.34009 9.39497 8.73006C9.23343 9.12004 8.99667 9.47438 8.6982 9.77285C8.39972 10.0713 8.04538 10.3081 7.65541 10.4696C7.26543 10.6312 6.84746 10.7143 6.42535 10.7143C5.57287 10.7143 4.75531 10.3756 4.15251 9.77285C3.54971 9.17006 3.21107 8.35249 3.21107 7.50001C3.21107 6.64753 3.54971 5.82996 4.15251 5.22717C4.75531 4.62437 5.57287 4.28572 6.42535 4.28572V4.28572Z" fill="#777777"/>
</svg>
